<?xml version="1.0" encoding="utf-8"?>
<!-- Generator: Adobe Illustrator 18.1.0, SVG Export Plug-In . SVG Version: 6.00 Build 0)  -->
<!DOCTYPE svg PUBLIC "-//W3C//DTD SVG 1.1//EN" "http://www.w3.org/Graphics/SVG/1.1/DTD/svg11.dtd">
<svg version="1.1" id="Layer_1" xmlns="http://www.w3.org/2000/svg" xmlns:xlink="http://www.w3.org/1999/xlink" x="0px" y="0px"
	 viewBox="0 0 250.3 109.2" enable-background="new 0 0 250.3 109.2" xml:space="preserve">
<g>
	<path fill="#FFFFFF" d="M28.8,40.7c0.6,2.7,0.3,5.4-0.7,8c-1.1,2.6-2.6,5-4.6,7.2c-2,2.2-4.2,4.1-6.7,5.8c-2.5,1.7-4.9,2.9-7.1,3.8
		c-0.1,0.5-0.1,1.2,0,2c0,0.8,0.1,1.7,0.2,2.6c0.1,0.9,0.2,1.8,0.3,2.6c0.1,0.8,0.2,1.5,0.3,2.1c0.1,0.6,0.3,1.1,0.4,1.6
		c0.2,0.5,0.2,1,0.2,1.4c0,0.4-0.1,0.9-0.3,1.3c-0.2,0.4-0.6,0.8-1.2,1.3c-0.5,0.3-1,0.6-1.4,0.7c-0.7,0.2-1.2,0-1.5-0.5
		c-0.3-0.5-0.6-1-0.7-1.5c-0.7-3.3-1.3-6.5-1.8-9.5c-0.5-3-0.9-6-1.2-9c-0.3-3-0.4-6-0.5-9c-0.1-3,0-6.3,0.1-9.7
		c0-0.5,0.1-1.1,0.1-1.8c0-0.7,0.1-1.5,0.2-2.2c0.1-0.8,0.3-1.5,0.5-2.1c0.2-0.6,0.5-1.1,0.8-1.4C4.5,34.2,4.7,34,5,33.9
		c0.3-0.1,0.6-0.2,0.9-0.3c0.8-0.2,1.5-0.1,2.1,0.1c0.6,0.2,1,0.8,1.2,1.6c0.1,0.4,0.1,1,0.2,1.7c0,0.7,0,1.4-0.1,2.1
		c-0.1,0.7-0.1,1.4-0.2,2.1C9,41.9,8.9,42.5,8.9,43c-0.2,3.4-0.2,6.7-0.1,10.1c0.1,3.4,0.4,6.7,0.8,10.1c1.8-0.8,3.6-1.9,5.7-3.2
		c2-1.3,3.8-2.8,5.4-4.5c1.6-1.7,2.8-3.5,3.7-5.6c0.9-2,1.1-4.2,0.6-6.4c-0.4-2-1.4-3.8-2.8-5.3c-1.4-1.5-3-2.7-4.9-3.7
		c-1.9-0.9-3.9-1.6-6-2s-4.1-0.4-6-0.2c-0.3,0-0.7,0.1-1.2,0.2c-0.6,0.1-1.1,0.2-1.7,0.2c-0.6,0-1.1-0.1-1.5-0.2S0.1,32,0,31.6
		c-0.1-0.3,0-0.6,0-1.1c0.2-0.9,0.4-1.5,0.8-1.8s0.9-0.5,1.8-0.7c2.3-0.5,4.9-0.6,7.7-0.3c2.8,0.3,5.5,0.9,8,2
		c2.6,1.1,4.8,2.5,6.7,4.3C27,35.8,28.3,38.1,28.8,40.7z"/>
	<path fill="#FFFFFF" d="M58.8,57c-0.1-0.3-0.2-0.6-0.4-0.8c-0.2-0.3-0.5-0.4-0.9-0.3c-0.4,0.1-0.2,0.3-0.4,0.8
		c-0.2,0.4-0.3,0.7-0.4,0.9c-0.2,0.6-0.6,1.5-1.1,2.5c-0.5,1-1,2-1.6,3c-0.6,1-1.2,1.8-1.9,2.6c-0.7,0.7-1.3,1.2-2,1.3
		c-0.3,0.1-0.5,0-0.7,0c-0.2-0.1-0.3-0.2-0.5-0.4c-0.1-0.2-0.2-0.4-0.3-0.7c-0.1-0.3-0.1-0.5-0.2-0.8c-0.5-2.2-0.8-4.4-0.9-6.7
		c-0.1-2.3-0.5-4.5-0.9-6.8c-0.1-0.5-0.3-1-0.5-1.6c-0.2-0.5-0.5-1-0.8-1.5c-0.4-0.5-0.8-0.8-1.3-1.1c-0.5-0.3-1.1-0.3-1.7-0.2
		c-0.9,0.2-1.7,0.7-2.5,1.5c-0.8,0.8-1.5,1.8-2.2,2.9c-0.7,1.1-1.3,2.4-1.9,3.7c-0.6,1.3-1.1,2.7-1.5,4c-0.4,1.3-0.8,2.6-1.2,3.7
		c-0.1,0.4-0.2,0.9-0.4,1.3c0-0.1,0-0.1,0-0.2c-0.1-0.9-0.1-1.8-0.2-2.8c0-1-0.1-1.9-0.1-2.7c0-1,0-1.4,0.1-1.5
		c0.2-0.9,0.5-1.8,0.8-2.7c0.3-0.9,0.5-1.8,0.8-2.8c1-3.9,1.7-7.8,2.1-11.8c0.4-4,0.1-8-0.7-11.9c-0.1-0.4-0.2-0.9-0.4-1.5
		c-0.2-0.6-0.5-1.1-0.8-1.6c-0.3-0.5-0.7-0.9-1.2-1.2c-0.5-0.3-1.1-0.4-1.7-0.2c-0.5,0.1-1,0.3-1.5,0.7c-0.4,0.3-0.8,0.8-1.1,1.2
		C28.4,26,28.2,26.5,28,27c-0.2,0.5-0.4,1-0.5,1.5c-0.5,1.8-0.8,4-0.9,6.4c-0.1,2.4-0.1,4.9,0,7.4c0.1,2.5,0.3,5.1,0.5,7.5
		c0.2,2.4,0.4,4.6,0.6,6.6c0.2,1.7,0.4,3.4,0.5,5.1c0.2,1.7,0.3,3.4,0.5,5.1c0.1,0.9,0.2,1.8,0.2,2.8c0.1,0.9,0.2,1.9,0.4,2.8
		c0.1,0.3,0.2,0.6,0.3,1c0.1,0.4,0.3,0.7,0.5,1c0.2,0.3,0.5,0.6,0.8,0.8c0.2,0.1,0.5,0.2,0.8,0.2c0.1,0,0.3,0,0.4,0
		c0.4-0.1,0.8-0.3,1.1-0.6c0.3-0.3,0.5-0.6,0.7-1c0.2-0.4,0.3-0.8,0.4-1.2c0.1-0.4,0.2-0.8,0.3-1.1c0.1-0.5,0.3-1.3,0.6-2.5
		c0.3-1.2,0.7-2.5,1.1-3.9c0.4-1.5,0.9-3,1.5-4.5c0.5-1.6,1.1-3,1.6-4.3c0.5-1.3,1-2.4,1.5-3.3c0.6-1.1,1-1.3,1.2-1.3
		c0,0,0.1,0,0.1,0c0,0,0.1,0,0.2,0.2c0.1,0.3,0.2,0.6,0.2,0.7l0.1,0.4c0.2,1.9,0.5,3.9,0.7,5.8c0.2,1.9,0.5,3.9,0.9,5.8
		c0.1,0.5,0.3,1.2,0.5,2c0.2,0.8,0.5,1.6,0.8,2.4c0.4,0.8,0.8,1.4,1.3,1.9c0.5,0.5,1.3,0.7,2.1,0.6c1.3-0.3,2.5-0.9,3.6-1.9
		c1.1-1,2.1-2.1,3-3.4c0.9-1.3,1.6-2.6,2.2-4c0.6-1.4,0.6-2.7,0.9-3.8c0-0.2,0.1-0.3,0.1-0.4C58.9,57.4,58.9,57.2,58.8,57z
		 M32.3,26.7c0,0,0.1,0,0.1,0.1c0.1,0.2,0.2,0.4,0.3,0.7c0.1,0.2,0.2,0.5,0.2,0.8l0.1,0.6c0.3,1.6,0.5,3.4,0.5,5.5
		c0,2.1-0.2,4.2-0.4,6.4c-0.2,2.2-0.6,4.3-1,6.4c-0.3,1.6-0.7,3-1,4.4c-0.1-0.5-0.1-1.2-0.2-1.9c-0.1-1.5-0.2-3.2-0.3-5.1
		c-0.1-1.9-0.2-3.9-0.2-6c0-2,0-4,0.1-5.7c0.1-1.7,0.3-3.2,0.6-4.3C31.3,27.7,31.7,26.9,32.3,26.7C32.3,26.7,32.3,26.7,32.3,26.7z"
		/>
	<g>
		<path fill="#FFFFFF" d="M56,45c0.3,0.3,0.7,0.4,1.2,0.4c0.2,0,0.3,0,0.5-0.1c0.8-0.2,1.4-0.6,1.8-1.4c0.4-0.7,0.5-1.5,0.3-2.3
			c-0.1-0.6-0.4-1.1-0.9-1.4c-0.5-0.4-1-0.5-1.7-0.4c-0.8,0.2-1.4,0.6-1.7,1.4c-0.4,0.7-0.5,1.5-0.3,2.2C55.3,44.2,55.6,44.6,56,45z
			"/>
		<path fill="#FFFFFF" d="M70.1,54.9c-0.1-0.3-0.2-0.6-0.3-0.8c-0.2-0.3-0.5-0.5-1-0.4c-0.4,0.1-0.7,0.4-0.9,0.8
			c-0.2,0.4,0.8-0.5,0.7-0.2c-0.2,0.6-0.6,1.5-1,2.6c-0.4,1.1-1,2.2-1.5,3.2c-0.6,1-1.2,2-1.9,2.8c-0.6,0.8-1.3,1.2-1.9,1.4
			c-0.4,0.1-0.7,0-0.9-0.3c-0.3-0.3-0.6-0.7-0.8-1.2c-0.2-0.5-0.4-1-0.5-1.5c-0.1-0.5-0.2-0.9-0.3-1.2c-0.3-1.6-0.5-3.2-0.5-4.7
			c0-0.4,0.1-0.9,0.1-1.4l0.2-1.6c0.1-0.5,0.1-1.1,0.1-1.6c0-0.5,0-1-0.1-1.3c-0.2-0.9-0.8-1.1-1.3-1.1c-0.1,0-0.3,0-0.5,0.1
			c-1.2,0.3-2,0.8-2.5,1.6c-0.4,0.8-0.7,1.7-0.8,2.8c-0.1,1-0.1,2.1-0.1,3.4c0,1.3,0.2,2.4,0.4,3.4c0.2,0.8,0.4,1.7,0.7,2.7
			c0.3,1,0.8,2,1.3,2.9c0.6,0.9,1.2,1.6,2,2.1c0.6,0.4,1.2,0.6,1.9,0.6c0.3,0,0.6,0,1-0.1c1-0.2,1.9-0.8,2.8-1.6
			c0.9-0.8,1.7-1.8,2.4-2.9c0.7-1.1,1.4-2.2,2-3.3c0.6-1.2,1-2.1,1.4-2.9c0.1-0.2,0.2-0.4,0.3-0.6c0.1-0.3-0.9,0.6-0.8,0.3
			c0.1-0.3,0.2-0.6,0.2-0.9C70.2,55.4,70.2,55.1,70.1,54.9z"/>
	</g>
	<path fill="#FFFFFF" d="M84.4,51.4c-0.1-0.3-0.2-0.5-0.4-0.7c-0.2-0.2-0.5-0.3-0.9-0.2c-0.3,0.1-0.6,0.2-0.8,0.5
		c-0.1,0.2-0.3,0.4-0.4,0.7c-0.2,0.4-0.3,0.8-0.5,1.2c-0.1,0.4-0.3,0.8-0.4,1.2c-0.2,0.6-0.6,1.3-1,2.1c-0.4,0.9-0.9,1.7-1.4,2.5
		c-0.5,0.8-1.1,1.5-1.7,2.2c-0.6,0.6-1.2,1-1.8,1.1c-0.7,0.1-1.2,0-1.7-0.6c-0.5-0.6-1-1.3-1.5-2.1c-0.4-0.8-0.8-1.7-1.1-2.6
		c-0.3-0.9-0.5-1.6-0.6-2.1c-0.1-0.3-0.1-0.7-0.2-1.2c-0.1-0.4-0.1-0.8-0.1-1.1c0-0.2,0.1-0.5,0.2-0.8c0.1-0.3,0.2-0.6,0.3-0.9
		c0.3-0.8,0.6-1.6,0.8-2.3c0.3-0.7,0.6-1.5,0.8-2.3c0.5-1.6,0.9-3.5,1.3-5.4c0.4-2,0.7-4,0.9-6.1c0.2-2.1,0.3-4.1,0.3-6.2
		c0-2-0.2-3.9-0.6-5.5c-0.1-0.5-0.3-1-0.5-1.6c-0.2-0.6-0.5-1.1-0.9-1.5c-0.4-0.5-0.8-0.8-1.3-1c-0.5-0.2-1.1-0.3-1.8-0.1
		c-0.8,0.2-1.6,0.7-2.2,1.4c-0.6,0.7-1.2,1.6-1.7,2.6c-0.5,1-0.9,2-1.2,3c-0.3,1-0.5,1.8-0.7,2.5c-0.7,3.7-1,7.5-0.8,11.2
		c0.2,3.7,0.7,7.5,1.5,11.2c0.1,0.7,0.4,1.6,0.6,2.6c0.3,1.1,0.6,2.2,1.1,3.5c0.4,1.2,0.9,2.4,1.4,3.6c0.6,1.2,1.2,2.3,1.9,3.2
		c0.7,0.9,1.5,1.6,2.4,2.1c0.6,0.4,1.3,0.5,2,0.5c0.3,0,0.6,0,0.9-0.1c1.1-0.2,2.2-0.8,3.2-1.8c1-0.9,1.8-2,2.6-3.2
		c0.8-1.2,1.5-2.5,2-3.8c0.5-1.3,1-2.4,1.3-3.4c0.1-0.3,0.2-0.7,0.3-1C84.5,52.2,84.5,51.8,84.4,51.4z M71.9,28.7
		c-0.1,2.1-0.3,4.3-0.6,6.5c-0.3,2.2-0.8,4.4-1.3,6.5c-0.5,1.8-0.9,3.4-1.4,4.8l-0.2-0.7c-0.5-2.5-0.8-5.2-0.8-8.1
		c0-2.9,0.1-5.6,0.4-8.2c0-0.5,0.1-1.1,0.2-2c0.1-0.9,0.2-1.8,0.4-2.6c0.2-0.9,0.5-1.7,0.8-2.4c0.3-0.6,0.7-1,1.2-1.1
		c0,0,0.1,0,0.1,0c0.1,0,0.1,0,0.2,0.1c0.1,0.1,0.2,0.3,0.3,0.4c0.1,0.2,0.2,0.4,0.2,0.6l0.1,0.5C71.9,24.6,72,26.5,71.9,28.7z"/>
	<path fill="#FFFFFF" d="M111.2,31.3c0.3-0.1,0.6-0.2,0.8-0.3c0.2-0.2,0.5-0.3,0.8-0.3c0.2,0,0.4-0.1,0.7,0c0.2,0,0.4,0.2,0.5,0.5
		c0.1,0.5,0.1,1-0.1,1.4c-0.2,0.5-0.5,0.9-0.8,1.3c-0.3,0.4-0.7,0.8-1.1,1.1c-0.4,0.3-0.8,0.6-1.2,0.9c0,2.5-0.1,5.3-0.2,8.5
		c-0.1,3.2-0.4,6.4-0.9,9.6c-0.5,3.3-1.1,6.4-2,9.4s-2,5.5-3.5,7.5c-0.5,0.7-1.1,1.4-1.8,2.1c-0.7,0.6-1.5,1.1-2.4,1.2
		c-1,0.2-1.9,0.1-2.5-0.2c-0.7-0.4-1.2-0.9-1.7-1.6c-0.4-0.7-0.8-1.5-1.1-2.3c-0.3-0.9-0.5-1.7-0.6-2.4l-0.2-0.9
		c-0.5-2.4-0.5-5,0.1-8c0.6-3,1.5-6,2.7-9c1.2-3,2.6-5.8,4.1-8.5c1.6-2.7,3.1-4.9,4.6-6.7c0.1-3.8,0.2-7.7,0.2-11.5
		c0-3.8-0.4-7.7-1.3-11.5c-0.1-0.5-0.3-1.2-0.5-2c-0.2-0.8-0.5-1.6-0.8-2.3c-0.4-0.7-0.8-1.4-1.4-1.8c-0.5-0.5-1.2-0.6-2-0.4
		c-1,0.2-1.9,0.8-2.8,1.6c-0.9,0.9-1.7,1.9-2.5,3.1c-0.7,1.2-1.4,2.3-2,3.6c-0.6,1.2-1,2.3-1.2,3.2c-0.2,0.7-0.3,1.4-0.4,2.3
		c-0.1,0.8-0.2,1.7-0.2,2.5c0,0.9,0,1.7,0,2.5c0.1,0.8,0.2,1.6,0.3,2.3c0.1,0.6,0.3,1.1,0.5,1.4c0.2,0.4,0.4,0.7,0.6,1.1
		s0.4,0.6,0.6,0.9c0.2,0.3,0.3,0.6,0.4,0.9c0.2,1-0.1,1.5-1,1.7c-0.7,0.1-1.2,0-1.7-0.4c-0.5-0.4-0.9-0.9-1.2-1.4
		c-0.3-0.6-0.6-1.2-0.8-1.9c-0.2-0.7-0.3-1.3-0.4-1.7c-0.4-1.7-0.5-3.4-0.4-5.1c0.1-1.7,0.4-3.4,0.7-5.1c0.3-1.5,0.9-3.1,1.7-4.8
		c0.8-1.8,1.8-3.5,2.9-5.1c1.1-1.6,2.4-3,3.9-4.3c1.4-1.2,2.9-2,4.5-2.3c1.5-0.3,2.8-0.1,3.8,0.7c1,0.8,1.9,1.9,2.6,3.2
		c0.7,1.3,1.2,2.7,1.6,4.2c0.4,1.5,0.7,2.8,0.9,3.8c0.7,3.2,1.1,6.4,1.2,9.6C111.4,24.9,111.3,28.1,111.2,31.3L111.2,31.3z
		 M101.8,45.1c-1.1,2.4-2.1,4.8-2.9,7.5c-0.8,2.6-1.5,5.2-1.8,7.7c-0.4,2.5-0.4,4.7,0,6.5c0,0.2,0.1,0.4,0.2,0.8
		c0.1,0.3,0.2,0.7,0.4,1c0.1,0.3,0.3,0.6,0.5,0.8c0.2,0.2,0.5,0.3,0.7,0.2c0.7-0.1,1.3-0.9,1.8-2.2c0.5-1.3,1-3,1.5-5
		c0.5-2,0.9-4.2,1.2-6.6c0.4-2.4,0.7-4.7,0.9-6.9c0.2-2.2,0.4-4.2,0.6-5.9c0.2-1.7,0.2-3,0.3-3.7C104,40.8,102.9,42.7,101.8,45.1z"
		/>
	<path fill="#FFFFFF" d="M137.6,40.9c-0.2-0.9-0.7-1-1.1-1c-0.1,0-0.2,0-0.3,0c-0.5,0.1-0.8,0.4-1,0.8c-0.1,0.3-0.3,0.7-0.4,1
		c-0.2,0.5-0.5,1.3-1,2.2c-0.5,0.9-1,1.9-1.5,2.8c-0.6,0.9-1.2,1.7-1.8,2.4c-0.6,0.7-1.2,1.1-1.8,1.2c-0.3,0.1-0.6,0-0.9-0.4
		c-0.3-0.4-0.6-0.8-0.8-1.4c-0.2-0.5-0.4-1.1-0.5-1.6c-0.1-0.6-0.2-1-0.3-1.2c-0.2-0.9-0.3-1.9-0.4-2.9c-0.1-1-0.1-2.1,0-3
		c0.1-0.4,0.1-1,0.2-1.6c0.1-0.7,0.1-1.3,0-1.7c-0.1-0.6-0.5-0.7-0.7-0.8c-0.3-0.1-0.6,0-0.9,0c-0.6,0.1-1,0.4-1.2,0.9
		c-0.2,0.4-0.3,0.8-0.4,1.3c-0.1,0.4-0.2,1-0.4,1.8c-0.2,0.8-0.4,1.6-0.7,2.6c-0.3,0.9-0.6,1.9-0.9,2.9c-0.3,1-0.7,1.9-1,2.7
		c-0.4,0.8-0.7,1.5-1.1,2.1c-0.4,0.5-0.7,0.8-1,0.9c-0.2,0-0.3,0.1-0.4-0.2c-0.1-0.3-0.2-0.5-0.3-0.7c-0.4-2-0.4-3.9,0-5.8
		c0.4-1.9,1.2-3.7,2.2-5.3c0.6-1,1.2-1.8,2-2.6c0.7-0.8,1.5-1.6,2.3-2.3c0.1-0.1,0.3-0.2,0.4-0.4c0.1-0.1,0.2-0.3,0.1-0.6
		c-0.1-0.5-0.4-0.8-0.9-1.1c-0.5-0.3-1-0.4-1.4-0.3c-1.6,0.3-3,1.2-4.2,2.6c-1.2,1.4-2.2,3-3,4.8c-0.8,1.8-1.3,3.7-1.6,5.6
		c-0.3,1.9-0.3,3.6,0,5c0.1,0.5,0.3,1.1,0.5,1.7c0.2,0.6,0.5,1.2,0.9,1.7c0.4,0.5,0.8,1,1.4,1.3c0.4,0.2,0.8,0.3,1.3,0.3
		c0.2,0,0.4,0,0.6-0.1c0.8-0.2,1.5-0.6,2.1-1.3c0.6-0.7,1.2-1.5,1.7-2.4c0.5-0.9,1-1.8,1.3-2.7c0.2-0.5,0.4-1,0.6-1.5
		c0.1,0.5,0.2,1,0.4,1.5c0.3,0.9,0.7,1.8,1.1,2.6c0.5,0.8,1.1,1.5,1.8,2c0.7,0.5,1.6,0.7,2.5,0.5c1-0.2,1.9-0.7,2.7-1.4
		c0.8-0.7,1.6-1.6,2.3-2.6c0.7-1,1.3-2,1.8-3c0.5-1,0.9-1.9,1.3-2.7c0.1-0.3,0.3-0.7,0.5-1.2C137.6,41.7,137.7,41.3,137.6,40.9z"/>
	<path fill="#FFFFFF" d="M155.1,35.9c-0.2-0.8-0.7-0.9-1-0.9c-0.1,0-0.2,0-0.3,0c-0.4,0.1-0.8,0.4-1,0.8c-0.2,0.4-0.4,0.7-0.5,1.1
		c-0.4,1-0.8,2.1-1.4,3.2c-0.6,1-1.2,2-1.9,2.9c-0.7,0.9-1.6,1.6-2.5,2.2c-0.9,0.6-2,1.1-3.1,1.3c-0.7,0.2-1.4,0.1-1.9,0
		c-0.6-0.2-1.1-0.5-1.5-0.9c-0.4-0.4-0.8-0.9-1-1.5c-0.3-0.6-0.5-1.2-0.6-1.9c-0.2-0.8-0.2-1.8-0.2-3.1c0-1.3,0.1-2.7,0.4-4.1
		c0.2-1.3,0.7-2.6,1.2-3.6c0.5-1,1.3-1.6,2.2-1.8c0.5-0.1,0.8,0,0.9,0.3c0.2,0.4,0.4,0.8,0.5,1.3c0.2,0.7,0.1,1.4,0,2.1
		c-0.2,0.7-0.2,1.3-0.2,1.7c0.1,0.5,0.5,0.7,1,0.6c0.6-0.1,1-0.4,1.4-0.9c0.3-0.4,0.5-0.9,0.6-1.4c0.1-0.5,0.1-1,0.1-1.6
		c0-0.5-0.1-1-0.2-1.5c-0.3-1.5-1-2.5-1.9-3c-0.9-0.5-2.1-0.6-3.5-0.3c-1.6,0.3-3,1.1-4.1,2.3c-1.1,1.2-1.9,2.5-2.4,4
		c-0.6,1.5-0.9,3.1-1,4.8c-0.1,1.7,0,3.2,0.3,4.6c0.2,1.1,0.6,2.1,1.1,3.1c0.5,1,1.1,1.9,1.9,2.7c0.8,0.8,1.7,1.3,2.7,1.7
		c0.6,0.2,1.2,0.3,1.9,0.3c0.5,0,1-0.1,1.5-0.2c1.6-0.3,3-0.9,4.4-1.8c1.3-0.8,2.6-1.8,3.6-3c1-1.2,2-2.5,2.7-3.9
		c0.8-1.4,1.4-2.9,1.8-4.3c0.1-0.2,0.1-0.4,0.2-0.7C155.1,36.4,155.1,36.1,155.1,35.9z"/>
	<path fill="#FFFFFF" d="M169.5,40.2c-0.1-0.5-0.4-1-0.9-1.4c-0.5-0.3-0.9-0.6-1.4-0.8c-1.2-0.5-2.4-0.9-3.6-1.3
		c-1.2-0.4-2.4-0.8-3.6-1.1c-0.8-0.2-1.5-0.5-2.2-0.7c-0.6-0.2-1.2-0.3-1.9-0.4c1.3-1.9,2.6-3.7,3.8-5.6c1.3-1.9,2.8-3.9,4.3-5.7
		c0.2-0.3,0.5-0.7,0.7-1.1c0.3-0.5,0.4-0.9,0.3-1.4c-0.1-0.3-0.3-0.6-0.6-0.9c-0.3-0.3-0.7-0.4-1.1-0.3c-0.4,0.1-0.8,0.4-1.1,0.8
		c-0.3,0.4-0.5,0.7-0.7,1c-1.3,1.9-2.6,3.8-3.9,5.6c-1.2,1.6-2.3,3.3-3.4,5c-0.3-2.9-0.5-5.8-0.6-8.7c-0.1-3.1-0.1-6.3-0.1-9.4
		c0-1.4,0.1-2.8,0.1-4.2c0-1.4,0.2-2.8,0.4-4.3c0.1-0.4,0.1-0.8,0.1-1.3c0-0.4,0-0.9-0.1-1.3c-0.2-1.1-0.9-1.4-1.5-1.4
		c-0.1,0-0.3,0-0.5,0.1c-1.3,0.3-2.2,0.9-2.8,2c-0.5,1-0.8,2.1-0.9,3.2c-0.2,2.5-0.3,5-0.2,7.5c0.1,2.5,0.2,5,0.3,7.4
		c0.2,3.3,0.5,6.6,0.9,9.9c0.4,3.2,1,6.5,1.7,9.8l0.5,2.3c0.2,0.9,0.4,1.7,0.6,2.5c0.2,0.8,0.4,1.7,0.7,2.5c0.2,0.8,0.5,1.6,0.8,2.2
		c0.2,0.4,0.4,0.7,0.7,1c0.2,0.2,0.5,0.4,0.9,0.4c0.1,0,0.3,0,0.4,0c0.4-0.1,0.7-0.3,0.9-0.5c0.2-0.2,0.3-0.5,0.3-0.8
		c0-0.3,0-0.6,0-0.9c0-0.3-0.1-0.6-0.1-0.8c-0.2-0.8-0.3-1.6-0.4-2.4c-0.1-0.8-0.2-1.6-0.3-2.4c-0.1-1-0.3-2-0.4-3
		c-0.1-0.9-0.2-1.8-0.2-2.7c0.5,0.1,0.9,0.1,1.3,0.3c0.5,0.1,1.1,0.3,1.6,0.5c1.4,0.3,2.7,0.7,3.9,1.1c1.3,0.4,2.7,0.8,4,1.1
		c0.3,0.1,0.6,0.1,0.9,0.2c0.3,0.1,0.6,0,0.9,0c0.3-0.1,0.5-0.2,0.8-0.3C169.3,41.1,169.6,40.8,169.5,40.2z"/>
	<path fill="#FFFFFF" d="M191.4,29.7c-0.1-0.3-0.2-0.6-0.4-0.8c-0.2-0.3-0.5-0.4-0.9-0.3c-0.4,0.1-0.8,0.4-1,0.8
		c-0.2,0.4-0.3,0.7-0.5,1c-0.2,0.5-0.6,1.3-1.1,2.3c-0.5,1-1.1,1.9-1.8,2.9c-0.7,1-1.4,1.8-2.1,2.6c-0.5,0.5-1,0.9-1.4,1.1
		c0.2-0.6,0.3-1.2,0.3-1.8c0-0.8,0-1.5-0.2-2.2c-0.2-1.1-0.7-2.2-1.3-3.3c-0.6-1-1.3-2-2-2.9c-0.7-0.9-1.5-1.8-2.3-2.7
		c-0.8-0.9-1.4-1.7-2.1-2.6c0.1-0.8,0.2-1.7,0.3-2.7c0.1-1,0-1.9-0.2-2.8c-0.1-0.3-0.2-0.6-0.3-0.9c-0.1-0.3-0.3-0.6-0.5-0.9
		c-0.2-0.3-0.5-0.5-0.8-0.7c-0.3-0.2-0.7-0.2-1-0.1c-0.7,0.1-1.3,0.5-1.7,1.1c-0.4,0.6-0.7,1.2-0.9,2c-0.2,0.7-0.3,1.5-0.3,2.2
		c0,0.8,0,1.4,0.1,2c0.2,0.9,0.6,1.8,1.1,2.7c-0.4,3.9-1.1,10.1-2.8,13.5c-0.1,0.3-0.2,0.5-0.3,0.8c-0.1,0.3-0.1,0.6,0,0.9
		c0.2,0.7,0.6,0.8,0.9,0.8c0.1,0,0.2,0,0.3,0c0.3-0.1,0.6-0.3,0.8-0.5c0.2-0.2,0.4-0.5,0.5-0.7c0.4-0.7,0.8-1.4,1.2-2.3
		c0.3-0.9,0.7-1.8,0.9-2.8c0.3-1,0.5-1.9,0.7-2.8c0.7-3.7,0-4.5,0-4.5c0.4,0.5,0.9,1,1.4,1.6c0.6,0.8,1.2,1.6,1.7,2.4
		c0.5,0.8,1,1.7,1.4,2.5c0.4,0.8,0.7,1.7,0.9,2.4c0.3,1.3,0.2,2.4-0.3,3.4c-0.5,0.9-1.4,1.6-2.7,1.9c-0.6,0.1-1.2,0.2-1.8,0.2
		l-0.1,0c-0.6,0-1.2-0.1-1.9-0.4c-0.2-0.1-0.4-0.1-0.5-0.2c-0.2-0.1-0.4-0.1-0.7,0c-0.7,0.1-1,0.6-0.9,1.3c0.1,0.3,0.2,0.5,0.4,0.7
		c0.2,0.2,0.3,0.3,0.6,0.5c0.9,0.6,1.9,0.8,3.1,0.8c0.1,0,0.2,0,0.3,0c1.2,0,2.4-0.2,3.4-0.4c1.9-0.4,3.6-1,5.1-1.8
		c1.5-0.8,2.8-1.8,3.9-2.9c1.1-1.1,2.1-2.4,2.9-3.9c0.8-1.5,1.6-3.1,2.2-4.9c0-0.2,0.1-0.4,0.2-0.6
		C191.5,30.1,191.5,29.9,191.4,29.7z"/>
	<path fill="#FFFFFF" d="M201.8,22.6c-0.2-0.8-0.4-1.7-0.8-2.5c-0.3-0.8-0.8-1.6-1.3-2.2c-0.5-0.6-1.2-1.1-2-1.5
		c-0.8-0.3-1.7-0.4-2.7-0.2c-1.6,0.4-3,1.2-4,2.4c-1,1.2-1.8,2.7-2.4,4.3c-0.5,1.6-0.9,3.3-1,5c-0.1,1.7,0,3.3,0.3,4.6
		c0.2,0.8,0.4,1.6,0.8,2.4c0.4,0.8,0.8,1.5,1.4,2.1c0.6,0.6,1.2,1.1,2,1.4c0.5,0.2,1,0.3,1.5,0.3c0.4,0,0.8,0,1.2-0.1
		c0.8-0.2,1.5-0.5,2.2-0.9c0.7-0.4,1.3-0.9,1.8-1.4c0.9-0.9,1.6-1.9,2.1-3.1c0.5-1.1,0.9-2.3,1.1-3.5c0.2-1.2,0.3-2.4,0.3-3.7
		C202.2,25,202,23.8,201.8,22.6z M199.5,29.3c-0.1,0.8-0.3,1.7-0.6,2.5c-0.3,0.8-0.7,1.5-1.3,2.2c-0.3,0.3-0.6,0.6-0.9,0.9
		c-0.3,0.3-0.7,0.4-1.1,0.5c-0.2,0-0.3,0.1-0.5,0.1c-0.3,0-0.5-0.1-0.8-0.2c-0.4-0.2-0.7-0.5-1-0.8c-0.3-0.4-0.5-0.8-0.7-1.2
		c-0.2-0.5-0.3-0.9-0.4-1.3c-0.2-0.8-0.3-1.8-0.2-3c0-1.2,0.1-2.5,0.4-3.7c0.3-1.2,0.7-2.3,1.2-3.2c0.5-0.9,1.3-1.5,2.2-1.7
		c0.2,0,0.3-0.1,0.5-0.1c0.3,0,0.6,0.1,0.8,0.2c0.4,0.2,0.7,0.6,1,1c0.3,0.4,0.5,0.9,0.7,1.4c0.2,0.5,0.3,1,0.4,1.4
		c0.2,0.8,0.3,1.6,0.3,2.5C199.6,27.6,199.6,28.5,199.5,29.3z"/>
	<path fill="#FFFFFF" d="M231,18.7c-0.1-0.3-0.2-0.6-0.5-0.8c-0.3-0.2-0.6-0.3-1-0.3c-0.3,0.1-0.7,0.2-0.9,0.8
		c-0.1,0.4-0.3,0.7-0.4,1c-0.2,0.6-0.4,1.4-0.8,2.3c-0.3,0.9-0.8,1.8-1.3,2.7c-0.5,0.9-1,1.7-1.6,2.4c-0.6,0.7-1.2,1.1-1.8,1.2
		c-0.4,0.1-0.6,0-0.9-0.1c-0.2-0.1-0.4-0.3-0.6-0.6c-0.2-0.3-0.3-0.6-0.4-0.9c-0.1-0.4-0.2-0.7-0.2-1c-0.3-1.2-0.5-2.5-0.7-3.7
		c-0.2-1.2-0.4-2.5-0.7-3.7c-0.1-0.4-0.2-0.9-0.4-1.4c-0.2-0.6-0.4-1.1-0.7-1.7c-0.3-0.6-0.7-1-1.1-1.3c-0.5-0.4-1-0.5-1.6-0.4
		c-0.7,0.2-1.5,0.7-2.2,1.8c-0.7,1-1.4,2.1-2.1,3.3c-0.7,1.2-1.3,2.4-1.8,3.7c-0.3,0.7-0.6,1.3-0.8,1.8c0-0.7-0.1-1.4-0.1-2.1
		c0-1.1,0.1-2.1,0.2-3.2c0.1-0.9,0.2-1.9,0.3-3c0.1-1.1,0-2.1-0.2-3c-0.1-0.6-0.4-1.1-0.7-1.4c-0.4-0.3-0.9-0.4-1.6-0.3
		c-0.7,0.2-1.4,0.6-1.9,1.3c-0.5,0.7-0.8,1.4-0.8,2.1c0,0.9,0,1.7,0.1,2.6c0,0.9,0.1,1.8,0.1,2.6c0,2.6,0.1,5.4,0.1,8.2
		c0,2.9,0.4,5.6,0.9,8.2c0.1,0.4,0.3,0.7,0.5,1c0.2,0.2,0.5,0.3,0.8,0.3c0.1,0,0.2,0,0.3,0c0.6-0.1,1-0.4,1.3-0.9
		c0.3-0.5,0.5-0.9,0.7-1.4c0.3-1.5,0.6-2.9,1-4.3c0.4-1.4,0.8-2.8,1.3-4.2c0.4-1.2,0.9-2.4,1.4-3.7c0.5-1.3,1.1-2.4,1.8-3.4
		c0.1-0.2,0.3-0.4,0.5-0.6c0.2-0.3,0.4-0.3,0.5-0.4c0.1,0,0.1,0.1,0.2,0.2c0.1,0.3,0.2,0.4,0.2,0.6c0.2,1,0.4,2,0.5,3
		c0.1,1,0.3,2,0.5,3c0.1,0.7,0.3,1.4,0.6,2.2c0.2,0.8,0.6,1.6,1,2.2c0.4,0.7,1,1.2,1.6,1.6c0.7,0.4,1.5,0.5,2.5,0.3
		c1-0.2,2-0.8,2.9-1.7c0.9-0.9,1.7-1.9,2.5-3c0.7-1.1,1.4-2.3,1.9-3.5c0.5-1.2,0.9-2.3,1.1-3.2c0-0.2,0.1-0.4,0.1-0.6
		C231,19.1,231,18.9,231,18.7z"/>
</g>
<g>
	<path fill="#FFFFFF" d="M65.2,87.7c0.3,1.3,0.2,2.5-0.3,3.8c-0.5,1.3-1.2,2.5-2.1,3.6s-1.9,2.1-3,3c-1.1,0.9-2.2,1.5-3.3,2
		c1.4,0.6,2.8,1.1,4.3,1.4c1.5,0.3,3,0.5,4.5,0.6c0.2,0,0.3,0,0.5,0c0.2,0,0.3,0,0.5,0c0.1,0,0.2,0,0.4-0.1c0.2,0,0.4-0.1,0.6-0.1
		c0.2,0,0.4,0,0.6,0.1c0.2,0,0.3,0.1,0.3,0.3c0.1,0.5,0,1-0.2,1.3c-0.3,0.4-0.6,0.6-1.2,0.7c-0.4,0.1-1.2,0.1-2.2,0
		c-1-0.1-2.1-0.3-3.3-0.5c-1.2-0.2-2.3-0.5-3.3-0.7c-1-0.3-1.8-0.5-2.2-0.7c0,0.2,0,0.5,0,0.8c0,0.3,0,0.7,0.1,1
		c0,0.3,0.1,0.7,0.1,1c0.1,0.3,0.1,0.6,0.2,0.9c0.1,0.3,0.1,0.6,0.2,0.8c0.1,0.3,0.1,0.5,0.1,0.7c0,0.2-0.1,0.4-0.2,0.6
		c-0.1,0.2-0.3,0.4-0.6,0.7c-0.2,0.2-0.5,0.3-0.7,0.3c-0.4,0.1-0.6,0-0.8-0.2c-0.2-0.2-0.3-0.5-0.3-0.8c-0.4-1.7-0.7-3.3-0.9-4.8
		c-0.3-1.5-0.5-3.1-0.6-4.6S52,95.7,52,94.2c0-1.6,0-3.2,0.1-4.9c0-0.2,0-0.5,0-0.9c0-0.4,0-0.8,0.1-1.1c0.1-0.4,0.1-0.7,0.2-1.1
		s0.3-0.6,0.5-0.7c0.2-0.2,0.5-0.3,0.8-0.4c0.4-0.1,0.8-0.1,1.1,0c0.3,0.1,0.5,0.4,0.6,0.8c0,0.2,0.1,0.5,0,0.9
		c0,0.4-0.1,0.8-0.1,1.2c0,0.4-0.1,0.8-0.1,1.2s-0.1,0.7-0.1,1c-0.2,3-0.1,6,0.3,8.9c0.9-0.4,1.9-1,2.9-1.6c1-0.7,1.9-1.4,2.8-2.3
		c0.8-0.9,1.4-1.8,1.9-2.8c0.5-1,0.6-2.1,0.3-3.3c-0.2-1-0.7-1.8-1.4-2.5c-0.7-0.7-1.6-1.2-2.5-1.5c-1-0.4-2-0.6-3-0.7
		c-1.1-0.1-2-0.1-2.9,0c-0.1,0-0.4,0-0.6,0.1c-0.3,0-0.6,0.1-0.9,0.1c-0.3,0-0.6,0-0.8-0.1c-0.2-0.1-0.4-0.2-0.4-0.4
		c0-0.1,0-0.3,0-0.6c0.1-0.5,0.2-0.8,0.4-0.9c0.2-0.1,0.5-0.2,0.9-0.3c0.2,0,0.4-0.1,0.6-0.1c0.2,0,0.4-0.1,0.6-0.1
		c1.1-0.1,2.3-0.1,3.6,0c1.3,0.1,2.5,0.3,3.7,0.7c1.2,0.4,2.2,1,3,1.8C64.3,85.3,64.9,86.4,65.2,87.7z"/>
	<path fill="#FFFFFF" d="M67.1,97.3c0.1-1.1,0.3-2.1,0.6-3.2c0.3-1,0.8-1.9,1.5-2.7c0.6-0.8,1.5-1.3,2.5-1.5
		c0.6-0.1,1.2-0.1,1.6,0.1c0.5,0.2,0.9,0.5,1.2,0.9c0.3,0.4,0.6,0.9,0.8,1.4c0.2,0.5,0.4,1,0.5,1.5c0.2,0.7,0.3,1.5,0.3,2.3
		c0,0.8,0,1.5-0.2,2.3c-0.1,0.8-0.4,1.5-0.7,2.2c-0.3,0.7-0.8,1.3-1.3,1.9c-0.3,0.3-0.7,0.6-1.1,0.9c-0.4,0.3-0.9,0.4-1.3,0.5
		c-0.6,0.1-1.1,0.1-1.6-0.1c-0.5-0.2-0.9-0.5-1.2-0.8c-0.3-0.4-0.6-0.8-0.8-1.3c-0.2-0.5-0.4-1-0.5-1.5C67.1,99.3,67,98.3,67.1,97.3
		z M70.6,93.3c-0.4,0.6-0.6,1.3-0.8,2.1c-0.2,0.8-0.3,1.6-0.3,2.4c0,0.8,0.1,1.5,0.2,2c0.1,0.3,0.1,0.6,0.3,0.9
		c0.1,0.3,0.3,0.6,0.4,0.8c0.2,0.2,0.4,0.4,0.7,0.6c0.3,0.1,0.6,0.2,0.9,0.1c0.3-0.1,0.6-0.2,0.8-0.4c0.2-0.2,0.4-0.4,0.6-0.6
		c0.4-0.4,0.6-0.9,0.8-1.4c0.2-0.5,0.3-1.1,0.4-1.6c0.1-0.6,0.1-1.1,0.1-1.7c0-0.6-0.1-1.1-0.2-1.6c-0.1-0.3-0.1-0.6-0.3-0.9
		c-0.1-0.3-0.3-0.7-0.5-0.9c-0.2-0.3-0.4-0.5-0.7-0.7c-0.3-0.2-0.6-0.2-0.9-0.1C71.5,92.3,71,92.6,70.6,93.3z"/>
	<path fill="#FFFFFF" d="M81.3,101.4c-0.6-0.2-1.2-0.6-1.7-1c-0.5-0.5-0.9-1-1.2-1.7c-0.3-0.6-0.5-1.3-0.7-2
		c-0.2-0.9-0.3-1.8-0.2-2.9c0.1-1.1,0.3-2.1,0.6-3c0.4-1,0.9-1.8,1.5-2.5c0.7-0.7,1.5-1.2,2.5-1.4c0.9-0.2,1.6-0.1,2.1,0.2
		c0.6,0.3,1,0.9,1.1,1.8c0.1,0.3,0.1,0.6,0.1,0.9c0,0.3,0,0.7,0,1c0,0.3-0.2,0.6-0.3,0.8c-0.2,0.2-0.4,0.4-0.8,0.5
		c-0.2,0.1-0.4,0-0.4-0.3c-0.1-0.2,0-0.6,0.1-1c0.1-0.4,0.1-0.9,0-1.4c-0.1-0.3-0.2-0.6-0.3-0.9c-0.1-0.3-0.4-0.4-0.8-0.3
		c-0.6,0.1-1.1,0.5-1.5,1.2c-0.4,0.7-0.6,1.5-0.8,2.4c-0.2,0.9-0.2,1.8-0.2,2.6c0,0.9,0.1,1.5,0.2,2c0.1,0.4,0.2,0.8,0.4,1.2
		c0.2,0.4,0.4,0.7,0.7,1c0.3,0.3,0.6,0.5,1,0.6c0.4,0.1,0.8,0.1,1.3,0c0.7-0.2,1.4-0.4,2-0.9s1.2-0.9,1.6-1.5s0.9-1.2,1.3-1.9
		c0.4-0.7,0.7-1.4,0.9-2c0.1-0.2,0.2-0.4,0.3-0.7c0.1-0.2,0.3-0.4,0.5-0.4c0.4-0.1,0.6,0.1,0.7,0.4c0,0.1,0,0.3,0,0.4
		c0,0.1-0.1,0.3-0.1,0.4c-0.3,0.9-0.7,1.8-1.2,2.7c-0.5,0.9-1.1,1.7-1.7,2.4c-0.7,0.7-1.4,1.4-2.3,1.9c-0.8,0.5-1.8,0.9-2.8,1.1
		C82.7,101.6,82,101.6,81.3,101.4z"/>
	<path fill="#FFFFFF" d="M91.9,95.8c0.1,0.6,0.2,1.3,0.3,1.9c0.1,0.5,0.1,1,0.2,1.5c0.1,0.5,0.1,1,0.3,1.5c0,0.2,0.1,0.3,0.1,0.5
		c0,0.2,0,0.4,0,0.5c0,0.2-0.1,0.3-0.2,0.5c-0.1,0.1-0.2,0.2-0.5,0.3c-0.3,0.1-0.5,0-0.7-0.2s-0.3-0.4-0.4-0.6
		c-0.2-0.4-0.3-0.9-0.5-1.4c-0.1-0.5-0.3-1-0.4-1.6c-0.1-0.5-0.3-1.1-0.4-1.6s-0.2-1-0.3-1.5c-0.4-2.1-0.8-4.1-1.1-6.2
		c-0.3-2.1-0.5-4.2-0.6-6.3c-0.1-1.6-0.1-3.2-0.2-4.7c0-1.6,0-3.2,0.1-4.7c0.1-0.7,0.2-1.4,0.6-2c0.3-0.6,0.9-1,1.6-1.2
		c0.6-0.1,0.9,0.1,1,0.7c0.1,0.2,0.1,0.5,0.1,0.8c0,0.3,0,0.5-0.1,0.8c-0.1,0.9-0.2,1.8-0.2,2.7c0,0.9,0,1.8-0.1,2.7c0,2,0,4,0.1,6
		c0.1,2,0.2,4,0.4,6c0.8-1.2,1.6-2.4,2.4-3.6c0.8-1.2,1.6-2.3,2.5-3.6c0.1-0.2,0.3-0.4,0.4-0.6c0.2-0.2,0.4-0.4,0.6-0.4
		c0.2,0,0.4,0,0.5,0.1c0.2,0.1,0.3,0.3,0.3,0.5c0.1,0.2,0,0.5-0.2,0.8c-0.2,0.3-0.3,0.5-0.5,0.7c-1,1.2-1.9,2.4-2.7,3.7
		c-0.9,1.2-1.7,2.5-2.6,3.8c0.5,0.1,1,0.2,1.4,0.3c0.5,0.1,0.9,0.3,1.4,0.4c0.8,0.2,1.5,0.5,2.3,0.7c0.8,0.2,1.5,0.5,2.3,0.8
		c0.3,0.1,0.6,0.3,0.8,0.5s0.5,0.5,0.5,0.8c0,0.2,0,0.3-0.2,0.4c-0.1,0.1-0.3,0.2-0.5,0.2c-0.2,0-0.4,0-0.5,0
		c-0.2,0-0.4-0.1-0.6-0.1c-0.8-0.2-1.7-0.5-2.5-0.7c-0.8-0.3-1.7-0.5-2.5-0.7c-0.4-0.1-0.7-0.2-1-0.3c-0.3-0.1-0.7-0.2-1.1-0.2
		C91.8,94.5,91.8,95.2,91.9,95.8z"/>
	<path fill="#FFFFFF" d="M107.9,73.3c-0.1,0.2-0.2,0.5-0.3,0.8s-0.2,0.7-0.2,1.1c0,0.4,0,0.9,0.1,1.4c0.1,0.2,0.1,0.5,0.2,0.7
		c0.1,0.2,0.2,0.4,0.2,0.7c0.1,0.4,0,0.7-0.2,1.1c-0.2,0.3-0.5,0.6-0.9,0.6c-0.8,0.2-1.2-0.1-1.4-0.8c0-0.1,0-0.3-0.1-0.4
		c0-0.2,0-0.3,0-0.4c0-0.3,0-0.7,0.1-1.3c0.1-0.6,0.3-1.2,0.5-1.7c0.2-0.6,0.4-1.1,0.7-1.6c0.3-0.5,0.6-0.7,0.9-0.8
		c0.2,0,0.3,0,0.4,0.2C108,72.9,108,73.1,107.9,73.3z"/>
	<path fill="#FFFFFF" d="M113.7,95.2c-0.1-0.1-0.2-0.3-0.3-0.6c-0.4-1.7-0.6-3.4-0.6-5.2c0-1.8-0.1-3.6-0.1-5.3c0-0.5,0-1.1,0-1.6
		c0-0.6,0-1.1,0-1.6c0-0.4,0.2-0.8,0.5-1.3c0.3-0.4,0.7-0.7,1.1-0.8c0.4-0.1,0.7,0,0.9,0.1c0.2,0.2,0.3,0.4,0.4,0.8
		c0.1,0.6,0.2,1.2,0.1,1.9c-0.1,0.7-0.1,1.3-0.2,1.9c-0.1,0.7-0.2,1.4-0.2,2c0,0.7,0,1.4,0.1,2c0.2-0.4,0.4-1,0.8-1.8
		c0.3-0.8,0.7-1.5,1.1-2.3c0.4-0.8,0.9-1.5,1.3-2.1c0.5-0.6,0.9-1,1.3-1.1c0.3-0.1,0.6,0,0.9,0.2c0.3,0.2,0.5,0.5,0.6,0.8
		c0.2,0.3,0.3,0.7,0.4,1c0.1,0.4,0.2,0.7,0.2,0.9c0.2,0.8,0.3,1.6,0.4,2.4c0.1,0.8,0.3,1.6,0.4,2.4c0,0.2,0.1,0.4,0.2,0.7
		c0.1,0.2,0.1,0.4,0.3,0.6c0.1,0.2,0.3,0.3,0.4,0.4c0.2,0.1,0.4,0.1,0.7,0.1c0.4-0.1,0.9-0.4,1.2-0.8c0.4-0.4,0.7-1,1.1-1.5
		s0.6-1.2,0.8-1.7c0.2-0.6,0.4-1.1,0.5-1.5c0.1-0.2,0.1-0.4,0.2-0.6c0.1-0.2,0.2-0.4,0.4-0.4c0.2,0,0.3,0,0.5,0.1
		c0.1,0.1,0.2,0.3,0.2,0.4c0,0.1,0,0.2,0,0.4c0,0.1-0.1,0.3-0.1,0.4c-0.1,0.6-0.4,1.2-0.7,2c-0.3,0.8-0.7,1.5-1.2,2.2
		c-0.5,0.7-1,1.3-1.6,1.9c-0.6,0.5-1.2,0.9-1.8,1c-0.6,0.1-1.1,0.1-1.5-0.2c-0.4-0.2-0.7-0.6-1-1c-0.3-0.4-0.5-0.9-0.6-1.4
		c-0.1-0.5-0.3-1-0.4-1.4c-0.1-0.6-0.3-1.3-0.3-1.9c-0.1-0.6-0.2-1.3-0.3-1.9c0-0.1-0.1-0.2-0.1-0.4c-0.1-0.2-0.2-0.2-0.3-0.2
		c-0.1,0-0.2,0.1-0.4,0.3c-0.1,0.2-0.2,0.3-0.3,0.4c-0.4,0.7-0.8,1.4-1.2,2.2c-0.3,0.8-0.6,1.6-0.9,2.3c-0.3,0.9-0.6,1.8-0.8,2.7
		c-0.2,0.9-0.4,1.8-0.6,2.8c-0.1,0.3-0.2,0.6-0.4,0.9c-0.2,0.3-0.4,0.4-0.8,0.5C114,95.4,113.8,95.3,113.7,95.2z"/>
	<path fill="#FFFFFF" d="M127.1,74.6c0.1-0.2,0.2-0.5,0.3-0.8c0.1-0.3,0.1-0.7,0.2-1.1c0-0.4,0-0.9-0.1-1.3
		c-0.1-0.2-0.1-0.5-0.2-0.7c-0.1-0.2-0.2-0.4-0.2-0.7c-0.1-0.4,0-0.7,0.2-1.1c0.2-0.3,0.5-0.6,0.9-0.6c0.3-0.1,0.6,0,0.9,0.1
		s0.4,0.4,0.5,0.7c0,0.2,0.1,0.3,0.1,0.5c0,0.1,0,0.3,0,0.4c0,0.3,0,0.7-0.1,1.3c-0.1,0.6-0.3,1.2-0.5,1.8c-0.2,0.6-0.5,1.1-0.7,1.6
		c-0.3,0.5-0.6,0.7-0.9,0.8c-0.2,0-0.3,0-0.4-0.2C127,75,127.1,74.9,127.1,74.6z"/>
	<path fill="#FFFFFF" d="M152.2,68.9c0.3,1.3,0.2,2.5-0.3,3.8c-0.5,1.3-1.2,2.5-2.1,3.6s-1.9,2.1-3,3s-2.2,1.5-3.3,2
		c1.4,0.6,2.8,1.1,4.3,1.4s3,0.5,4.5,0.6c0.2,0,0.3,0,0.5,0c0.2,0,0.3,0,0.5,0c0.1,0,0.2,0,0.4-0.1c0.2,0,0.4-0.1,0.6-0.1
		c0.2,0,0.4,0,0.6,0.1c0.2,0,0.3,0.1,0.3,0.3c0.1,0.5,0,1-0.2,1.3c-0.3,0.4-0.6,0.6-1.2,0.7c-0.4,0.1-1.2,0.1-2.2,0
		c-1-0.1-2.1-0.3-3.3-0.5c-1.2-0.2-2.3-0.5-3.3-0.7c-1-0.3-1.8-0.5-2.2-0.7c0,0.2,0,0.5,0,0.8c0,0.3,0,0.7,0.1,1
		c0,0.3,0.1,0.7,0.1,1c0.1,0.3,0.1,0.6,0.2,0.9c0.1,0.3,0.1,0.6,0.2,0.8c0.1,0.3,0.1,0.5,0.1,0.7c0,0.2-0.1,0.4-0.2,0.6
		c-0.1,0.2-0.3,0.4-0.6,0.7c-0.2,0.2-0.5,0.3-0.7,0.3c-0.4,0.1-0.6,0-0.8-0.2c-0.2-0.2-0.3-0.5-0.3-0.8c-0.4-1.7-0.7-3.3-0.9-4.8
		c-0.3-1.5-0.5-3.1-0.6-4.6c-0.1-1.5-0.2-3.1-0.3-4.6c0-1.6,0-3.2,0.1-4.9c0-0.2,0-0.5,0-0.9c0-0.4,0-0.8,0.1-1.1
		c0.1-0.4,0.1-0.7,0.2-1.1s0.3-0.6,0.5-0.7c0.2-0.2,0.5-0.3,0.8-0.4c0.4-0.1,0.8-0.1,1.1,0s0.5,0.4,0.6,0.8c0,0.2,0.1,0.5,0,0.9
		c0,0.4-0.1,0.8-0.1,1.2c0,0.4-0.1,0.8-0.1,1.2c-0.1,0.4-0.1,0.7-0.1,1c-0.2,3-0.1,6,0.3,8.9c0.9-0.4,1.9-1,2.9-1.6
		c1-0.7,1.9-1.4,2.8-2.3c0.8-0.9,1.4-1.8,1.9-2.8c0.5-1,0.6-2.1,0.3-3.3c-0.2-1-0.7-1.8-1.4-2.5c-0.7-0.7-1.6-1.2-2.5-1.5
		c-1-0.4-2-0.6-3-0.7c-1.1-0.1-2-0.1-2.9,0c-0.1,0-0.3,0-0.6,0.1c-0.3,0-0.6,0.1-0.9,0.1c-0.3,0-0.6,0-0.8-0.1s-0.4-0.2-0.4-0.4
		c0-0.1,0-0.3,0-0.6c0.1-0.5,0.2-0.8,0.4-0.9c0.2-0.1,0.5-0.2,0.9-0.3c0.2,0,0.4-0.1,0.6-0.1c0.2,0,0.4-0.1,0.6-0.1
		c1.1-0.1,2.3-0.1,3.6,0c1.3,0.1,2.5,0.3,3.7,0.7c1.2,0.4,2.2,1,3,1.8C151.4,66.5,151.9,67.6,152.2,68.9z"/>
	<path fill="#FFFFFF" d="M154.1,78.5c0.1-1.1,0.3-2.1,0.6-3.2c0.3-1,0.8-1.9,1.5-2.7c0.6-0.8,1.5-1.3,2.5-1.5
		c0.6-0.1,1.2-0.1,1.6,0.1c0.5,0.2,0.9,0.5,1.2,0.9c0.3,0.4,0.6,0.9,0.8,1.4c0.2,0.5,0.4,1,0.5,1.5c0.2,0.7,0.3,1.5,0.3,2.3
		c0,0.8,0,1.5-0.2,2.3c-0.1,0.8-0.4,1.5-0.7,2.2c-0.3,0.7-0.8,1.3-1.3,1.9c-0.3,0.3-0.7,0.6-1.1,0.9s-0.9,0.4-1.3,0.5
		c-0.6,0.1-1.1,0.1-1.6-0.1c-0.5-0.2-0.9-0.5-1.2-0.8c-0.3-0.4-0.6-0.8-0.9-1.3c-0.2-0.5-0.4-1-0.5-1.5
		C154.1,80.5,154.1,79.6,154.1,78.5z M157.7,74.5c-0.4,0.6-0.6,1.3-0.8,2.1c-0.2,0.8-0.3,1.6-0.3,2.4c0,0.8,0,1.5,0.2,2
		c0.1,0.3,0.1,0.6,0.3,0.9c0.1,0.3,0.3,0.6,0.4,0.8c0.2,0.2,0.4,0.4,0.7,0.6c0.3,0.1,0.6,0.2,0.9,0.1c0.3-0.1,0.6-0.2,0.8-0.4
		c0.2-0.2,0.4-0.4,0.6-0.6c0.4-0.4,0.6-0.9,0.8-1.4c0.2-0.5,0.3-1.1,0.4-1.6c0.1-0.6,0.1-1.1,0.1-1.7c0-0.6-0.1-1.1-0.2-1.6
		c-0.1-0.3-0.1-0.6-0.3-0.9c-0.1-0.3-0.3-0.7-0.5-0.9c-0.2-0.3-0.4-0.5-0.7-0.7c-0.3-0.2-0.6-0.2-0.9-0.1
		C158.5,73.5,158,73.9,157.7,74.5z"/>
	<path fill="#FFFFFF" d="M168.4,83.1c-0.5-0.3-1-0.7-1.5-1.3c-0.5-0.6-0.9-1.2-1.2-2c-0.4-0.8-0.7-1.5-0.9-2.3
		c-0.3-0.8-0.5-1.5-0.7-2.2s-0.3-1.2-0.4-1.7c-0.5-2.4-0.8-4.7-0.9-7.1c-0.1-2.4,0.1-4.8,0.5-7.1c0.1-0.4,0.2-1,0.4-1.6
		c0.2-0.6,0.4-1.2,0.7-1.9c0.3-0.6,0.7-1.2,1.1-1.6c0.4-0.5,0.9-0.7,1.3-0.9c0.4-0.1,0.8-0.1,1.1,0.1c0.3,0.1,0.6,0.3,0.8,0.6
		c0.2,0.3,0.4,0.6,0.5,0.9s0.2,0.7,0.3,1c0.2,1.1,0.4,2.2,0.4,3.5c0,1.3,0,2.6-0.2,3.9c-0.1,1.3-0.3,2.6-0.6,3.9
		c-0.2,1.3-0.5,2.4-0.8,3.5c-0.1,0.5-0.3,1-0.5,1.5c-0.2,0.5-0.4,1-0.5,1.5c-0.1,0.2-0.1,0.3-0.2,0.5c-0.1,0.2-0.1,0.4-0.1,0.6
		c0,0.2,0,0.4,0,0.7s0.1,0.6,0.1,0.8c0.1,0.3,0.2,0.8,0.4,1.4c0.2,0.6,0.4,1.2,0.7,1.7c0.3,0.5,0.6,1,1,1.4c0.4,0.4,0.8,0.5,1.2,0.4
		c0.4-0.1,0.8-0.3,1.2-0.7s0.8-0.9,1.1-1.4c0.3-0.5,0.6-1.1,0.9-1.6c0.3-0.6,0.5-1,0.6-1.4c0.1-0.3,0.2-0.5,0.3-0.8
		c0.1-0.3,0.2-0.5,0.3-0.8c0.1-0.2,0.1-0.3,0.2-0.4s0.2-0.2,0.4-0.2c0.2,0,0.3,0,0.4,0.1s0.2,0.2,0.2,0.4c0,0.2,0,0.4,0,0.7
		s-0.1,0.4-0.2,0.6c-0.2,0.6-0.5,1.3-0.9,2.2c-0.3,0.8-0.8,1.6-1.3,2.4c-0.5,0.8-1,1.4-1.6,2c-0.6,0.6-1.2,1-1.9,1.1
		C169.5,83.5,168.9,83.4,168.4,83.1z M166.5,55.8c-0.2,0.5-0.4,1-0.5,1.5c-0.1,0.6-0.2,1.1-0.3,1.7c-0.1,0.6-0.1,1-0.1,1.3
		c-0.1,1.6-0.2,3.4-0.2,5.2c0,1.8,0.2,3.6,0.5,5.2c0,0.2,0.1,0.3,0.1,0.5c0,0.1,0.1,0.3,0.1,0.5c0.3-1,0.7-2.2,1-3.6
		c0.4-1.4,0.6-2.7,0.9-4.2c0.2-1.4,0.4-2.8,0.4-4.2c0.1-1.4,0-2.6-0.3-3.7c0-0.1,0-0.2-0.1-0.3c0-0.2-0.1-0.3-0.1-0.4
		c-0.1-0.1-0.1-0.2-0.2-0.3c-0.1-0.1-0.2-0.1-0.3-0.1C167,55.1,166.7,55.4,166.5,55.8z"/>
	<path fill="#FFFFFF" d="M177.1,81.2c-0.5-0.3-1-0.8-1.5-1.3c-0.5-0.6-0.9-1.2-1.2-2c-0.4-0.8-0.7-1.5-0.9-2.3
		c-0.3-0.8-0.5-1.5-0.7-2.2c-0.2-0.7-0.3-1.2-0.4-1.7c-0.5-2.4-0.8-4.7-0.9-7.1c-0.1-2.4,0.1-4.8,0.5-7.1c0.1-0.4,0.2-1,0.4-1.6
		c0.2-0.6,0.4-1.2,0.7-1.9c0.3-0.6,0.7-1.2,1.1-1.6c0.4-0.5,0.9-0.7,1.3-0.9c0.4-0.1,0.8-0.1,1.1,0.1c0.3,0.1,0.6,0.3,0.8,0.6
		c0.2,0.3,0.4,0.6,0.5,0.9s0.2,0.7,0.3,1c0.2,1.1,0.4,2.2,0.4,3.5c0,1.3,0,2.6-0.2,3.9c-0.1,1.3-0.3,2.6-0.6,3.9
		c-0.2,1.3-0.5,2.4-0.8,3.5c-0.1,0.5-0.3,1-0.5,1.5c-0.2,0.5-0.4,1-0.5,1.5c-0.1,0.2-0.1,0.3-0.2,0.5c-0.1,0.2-0.1,0.4-0.1,0.6
		c0,0.2,0,0.4,0,0.7c0.1,0.3,0.1,0.6,0.1,0.8c0.1,0.3,0.2,0.8,0.4,1.4c0.2,0.6,0.4,1.2,0.7,1.7c0.3,0.5,0.6,1,1,1.4s0.8,0.5,1.2,0.4
		c0.4-0.1,0.8-0.3,1.2-0.7s0.8-0.9,1.1-1.4c0.3-0.5,0.6-1.1,0.9-1.6c0.3-0.6,0.5-1,0.6-1.4c0.1-0.3,0.2-0.5,0.3-0.8
		c0.1-0.3,0.2-0.5,0.3-0.8c0.1-0.2,0.1-0.3,0.2-0.4c0.1-0.1,0.2-0.2,0.4-0.2c0.2,0,0.3,0,0.4,0.1c0.1,0.1,0.2,0.2,0.2,0.4
		c0,0.2,0,0.4,0,0.7s-0.1,0.4-0.2,0.6c-0.2,0.6-0.5,1.3-0.9,2.2c-0.3,0.8-0.8,1.6-1.3,2.4c-0.5,0.8-1,1.4-1.6,2
		c-0.6,0.6-1.2,1-1.9,1.1C178.2,81.6,177.6,81.5,177.1,81.2z M175.1,54c-0.2,0.5-0.4,1-0.5,1.5c-0.1,0.6-0.2,1.1-0.3,1.7
		s-0.1,1-0.1,1.3c-0.1,1.6-0.2,3.4-0.2,5.2c0,1.8,0.2,3.6,0.5,5.2c0,0.2,0.1,0.3,0.1,0.5c0,0.1,0.1,0.3,0.1,0.5c0.3-1,0.7-2.2,1-3.6
		c0.4-1.4,0.6-2.7,0.9-4.2c0.2-1.4,0.4-2.8,0.4-4.2c0.1-1.4,0-2.6-0.3-3.7c0-0.1,0-0.2-0.1-0.3c0-0.2-0.1-0.3-0.1-0.4
		c-0.1-0.1-0.1-0.2-0.2-0.3c-0.1-0.1-0.2-0.1-0.3-0.1C175.7,53.3,175.4,53.5,175.1,54z"/>
	<path fill="#FFFFFF" d="M197.5,63.7c0.9,0.1,1.9,0.3,2.8,0.5c0.9,0.3,1.7,0.6,2.5,1.1c0.7,0.5,1.2,1.1,1.3,1.9
		c0.2,0.8,0.1,1.5-0.2,2.3c-0.3,0.7-0.8,1.5-1.3,2.2c-0.6,0.7-1.3,1.3-2.1,1.9c-0.8,0.6-1.7,1.1-2.5,1.6c-0.9,0.5-1.7,0.9-2.5,1.2
		c-0.8,0.3-1.5,0.6-2.1,0.7c-0.1,0.6-0.3,1-0.5,1.3c-0.2,0.2-0.7,0.4-1.3,0.5c-0.2,0-0.4,0.1-0.7,0.1c-0.3,0-0.5-0.1-0.5-0.4
		c-0.1-0.4-0.2-0.9-0.2-1.3c-0.1-0.4-0.1-0.9-0.2-1.3c-0.1-0.8-0.2-1.5-0.3-2.3c-0.1-0.8-0.2-1.5-0.2-2.3c-0.3-2.5-0.4-4.9-0.6-7.4
		c-0.1-2.4-0.2-4.9-0.2-7.4c-0.5,0.2-1,0.3-1.5,0.4c-0.5,0.1-1,0.3-1.4,0.5c-0.2,0.1-0.3,0.1-0.5,0.2c-0.2,0.1-0.3,0.1-0.5,0.2
		c-0.3,0.1-0.5,0-0.6-0.3c-0.1-0.3,0-0.6,0.4-0.7c0.3-0.1,0.6-0.3,0.8-0.4c0.6-0.2,1.1-0.4,1.7-0.6c0.6-0.2,1.1-0.4,1.7-0.6
		c0-0.8,0-1.6,0.1-2.4c0.1-0.8,0.5-1.5,1.2-2c0.4-0.3,0.8-0.5,1.2-0.5c0.1,0,0.2,0,0.4,0c0.2,0,0.2,0.1,0.3,0.2c0,0.1,0,0.2,0,0.2
		c-0.1,0.6-0.2,1.2-0.1,1.9c0,0.7,0,1.4,0,1.9c0.3-0.1,0.8-0.2,1.4-0.3s1.3-0.2,2-0.3c0.7-0.1,1.4-0.1,2.2-0.2c0.7,0,1.4,0,2,0.1
		c0.6,0.1,1.2,0.3,1.6,0.6c0.4,0.3,0.7,0.6,0.8,1.1c0.1,0.4,0.1,0.9-0.1,1.4c-0.2,0.5-0.5,1-0.8,1.6s-0.8,1.1-1.3,1.6
		c-0.5,0.5-1,1-1.5,1.4c-0.5,0.4-1,0.8-1.5,1.2c-0.5,0.3-0.9,0.6-1.3,0.8C195.7,63.5,196.5,63.6,197.5,63.7z M199,55.7
		c-0.4-0.2-0.8-0.3-1.3-0.3c-0.5-0.1-1.1-0.1-1.7-0.1c-0.6,0-1.2,0.1-1.8,0.2c-0.6,0.1-1.1,0.2-1.6,0.2c-0.5,0.1-0.8,0.1-1.1,0.2
		c0,1.3,0.1,2.5,0.1,3.8c0.1,1.3,0.1,2.5,0.2,3.8c0.5-0.2,1.2-0.6,2.1-1.1c0.9-0.5,1.8-1.1,2.7-1.7c0.9-0.6,1.6-1.3,2.2-2
		s0.8-1.4,0.7-2.1C199.6,56.1,199.4,55.8,199,55.7z M192.2,69.4c0.1,1.5,0.3,2.9,0.6,4.4c0,0.2,0.1,0.4,0.1,0.7
		c0,0.2,0.1,0.4,0.2,0.6c0.4-0.1,0.9-0.3,1.5-0.6c0.6-0.3,1.3-0.6,2-0.9c0.7-0.4,1.4-0.8,2.1-1.2c0.7-0.4,1.3-0.9,1.9-1.4
		c0.6-0.5,1-1,1.3-1.5c0.3-0.5,0.4-1,0.3-1.5c-0.1-0.5-0.4-1-0.8-1.4c-0.4-0.4-1-0.7-1.6-0.9s-1.3-0.4-2-0.5
		c-0.7-0.1-1.5-0.2-2.2-0.2c-0.7,0-1.4-0.1-2-0.1c-0.6,0-1.2,0-1.6,0C192,66.5,192.1,68,192.2,69.4z"/>
	<path fill="#FFFFFF" d="M220.6,66.1c-0.1,0.3-0.2,0.6-0.3,0.8c-0.2,0.5-0.5,1.1-0.8,1.7c-0.3,0.7-0.7,1.3-1.1,1.9
		c-0.4,0.6-0.9,1.1-1.4,1.6s-1.1,0.8-1.7,0.9c-0.6,0.1-1,0-1.5-0.3c-0.4-0.3-0.8-0.7-1.1-1.2c-0.3-0.5-0.5-1.1-0.7-1.6
		c-0.2-0.6-0.3-1.1-0.4-1.5c-0.2,0.4-0.3,0.9-0.6,1.4c-0.2,0.6-0.5,1.2-0.8,1.7c-0.3,0.6-0.7,1.1-1.1,1.5c-0.4,0.4-0.8,0.7-1.3,0.8
		c-0.4,0.1-0.8,0-1.1-0.2c-0.3-0.2-0.6-0.4-0.8-0.8c-0.2-0.3-0.4-0.7-0.5-1.1c-0.1-0.4-0.2-0.7-0.3-1.1c-0.2-0.9-0.2-1.9,0-3.1
		c0.2-1.2,0.5-2.4,1-3.5c0.5-1.2,1.1-2.2,1.9-3c0.8-0.9,1.6-1.4,2.6-1.6c0.2-0.1,0.5,0,0.8,0.2c0.3,0.2,0.5,0.4,0.5,0.6
		c0,0.1,0,0.2,0,0.3c-0.1,0.1-0.1,0.1-0.2,0.2c-0.5,0.5-1,1-1.5,1.5c-0.5,0.5-0.9,1.1-1.3,1.7c-0.7,1.1-1.2,2.2-1.4,3.5
		c-0.3,1.2-0.3,2.5,0,3.7c0,0.1,0.1,0.3,0.2,0.5c0.1,0.2,0.2,0.3,0.4,0.2c0.2-0.1,0.5-0.3,0.7-0.6c0.2-0.4,0.5-0.8,0.7-1.4
		c0.2-0.5,0.5-1.1,0.7-1.8c0.2-0.6,0.4-1.3,0.6-1.9c0.2-0.6,0.3-1.2,0.4-1.7c0.1-0.5,0.2-0.9,0.3-1.1c0.1-0.3,0.1-0.5,0.3-0.8
		c0.1-0.2,0.3-0.4,0.7-0.5c0.2,0,0.4,0,0.5,0c0.2,0,0.3,0.2,0.3,0.4c0.1,0.2,0,0.6,0,1c-0.1,0.4-0.1,0.8-0.2,1.1
		c-0.1,0.6,0,1.3,0,1.9c0.1,0.7,0.2,1.3,0.3,1.9c0,0.2,0.1,0.4,0.2,0.8c0.1,0.4,0.2,0.7,0.4,1.1c0.1,0.4,0.3,0.7,0.5,0.9
		c0.2,0.2,0.4,0.3,0.7,0.3c0.4-0.1,0.8-0.4,1.2-0.8s0.8-1,1.2-1.6c0.4-0.6,0.7-1.2,1-1.8c0.3-0.6,0.5-1.1,0.6-1.4
		c0.1-0.2,0.2-0.4,0.2-0.6c0.1-0.2,0.3-0.4,0.5-0.4c0.4-0.1,0.6,0.1,0.7,0.5C220.8,65.6,220.7,65.8,220.6,66.1z"/>
	<path fill="#FFFFFF" d="M219,72.4c-0.1-0.1-0.2-0.3-0.3-0.6c-0.4-1.7-0.6-3.4-0.6-5.2c0-1.8-0.1-3.6-0.1-5.3c0-0.5,0-1.1,0-1.6
		s0-1.1,0-1.6c0-0.4,0.2-0.8,0.5-1.3c0.3-0.4,0.7-0.7,1.1-0.8c0.4-0.1,0.7,0,0.9,0.1c0.2,0.2,0.3,0.4,0.4,0.8
		c0.1,0.6,0.2,1.2,0.1,1.9c-0.1,0.7-0.1,1.3-0.2,1.9c-0.1,0.7-0.2,1.4-0.2,2c0,0.7,0,1.4,0.1,2c0.2-0.4,0.4-1,0.8-1.8
		c0.3-0.8,0.7-1.5,1.1-2.3c0.4-0.8,0.9-1.5,1.3-2.1c0.5-0.6,0.9-1,1.3-1.1c0.3-0.1,0.6,0,0.9,0.2c0.3,0.2,0.5,0.5,0.6,0.8
		c0.2,0.3,0.3,0.7,0.4,1c0.1,0.4,0.2,0.7,0.2,0.9c0.2,0.8,0.3,1.6,0.4,2.4c0.1,0.8,0.3,1.6,0.4,2.4c0,0.2,0.1,0.4,0.2,0.7
		c0.1,0.2,0.1,0.4,0.3,0.6s0.3,0.3,0.4,0.4c0.2,0.1,0.4,0.1,0.7,0.1c0.4-0.1,0.9-0.4,1.2-0.8c0.4-0.4,0.7-1,1.1-1.5
		c0.3-0.6,0.6-1.2,0.8-1.7c0.2-0.6,0.4-1.1,0.5-1.5c0.1-0.2,0.1-0.4,0.2-0.6c0.1-0.2,0.2-0.4,0.4-0.4c0.2,0,0.3,0,0.5,0.1
		c0.1,0.1,0.2,0.3,0.2,0.4c0,0.1,0,0.2,0,0.4c0,0.1-0.1,0.3-0.1,0.4c-0.1,0.6-0.4,1.2-0.7,2c-0.3,0.8-0.7,1.5-1.2,2.2
		c-0.5,0.7-1,1.3-1.6,1.9c-0.6,0.5-1.2,0.9-1.8,1c-0.6,0.1-1.1,0.1-1.5-0.2c-0.4-0.2-0.7-0.6-1-1c-0.3-0.4-0.5-0.9-0.6-1.4
		c-0.1-0.5-0.3-1-0.4-1.4c-0.1-0.6-0.3-1.3-0.3-1.9c-0.1-0.6-0.2-1.3-0.3-1.9c0-0.1-0.1-0.2-0.1-0.4c-0.1-0.2-0.2-0.2-0.3-0.2
		c-0.1,0-0.2,0.1-0.4,0.3c-0.1,0.2-0.2,0.3-0.3,0.4c-0.4,0.7-0.8,1.4-1.2,2.2c-0.3,0.8-0.6,1.6-0.9,2.3c-0.3,0.9-0.6,1.8-0.8,2.7
		c-0.2,0.9-0.4,1.8-0.6,2.8c-0.1,0.3-0.2,0.6-0.4,0.9c-0.2,0.3-0.4,0.4-0.8,0.5C219.4,72.6,219.2,72.6,219,72.4z"/>
	<path fill="#FFFFFF" d="M239,63.7c-0.4,0.6-0.8,1.2-1.3,1.7c-0.5,0.6-1,1.1-1.5,1.5c-0.5,0.4-1,0.7-1.5,0.8c-0.4,0.1-0.7,0-1-0.1
		c-0.3-0.2-0.6-0.4-0.8-0.7c-0.2-0.3-0.4-0.6-0.6-0.9c-0.2-0.3-0.3-0.7-0.3-0.9c-0.3-1.3-0.3-2.6,0-4c0.3-1.4,0.8-2.6,1.6-3.7
		c0.3-0.4,0.7-0.8,1.2-1.2c0.5-0.4,1-0.7,1.5-0.8c0.7-0.1,1.3,0,1.9,0.4c-0.1-0.6-0.3-1.4-0.4-2.3c-0.1-0.9-0.2-1.8-0.2-2.8
		s0-2,0-3.1c0-1.1,0.1-2.1,0.3-3c0.2-1,0.4-1.9,0.6-2.7c0.2-0.8,0.6-1.5,0.9-2c0.2-0.3,0.4-0.6,0.7-0.9c0.3-0.3,0.6-0.5,0.9-0.5
		c0.4-0.1,0.8,0,1.1,0.2c0.3,0.2,0.6,0.5,0.8,0.9s0.4,0.7,0.5,1.1c0.1,0.4,0.2,0.8,0.3,1c0.3,1.2,0.4,2.6,0.3,4.2
		c-0.1,1.6-0.2,3.2-0.4,4.9c-0.2,1.7-0.5,3.3-0.9,4.9s-0.7,3-1,4.2c0.1,0.2,0.2,0.7,0.3,1.2c0.1,0.6,0.3,1.1,0.5,1.7
		c0.2,0.6,0.5,1.1,0.8,1.5c0.3,0.4,0.6,0.6,1,0.5c0.5-0.1,1-0.4,1.4-0.8c0.4-0.4,0.8-1,1.2-1.5c0.4-0.6,0.7-1.2,0.9-1.8
		c0.3-0.6,0.5-1.1,0.6-1.6c0.1-0.2,0.2-0.5,0.3-0.8c0.1-0.3,0.3-0.5,0.5-0.5c0.2,0,0.3,0,0.4,0.2c0.1,0.1,0.2,0.3,0.2,0.5
		c0.1,0.2,0,0.5-0.1,0.8c-0.1,0.3-0.2,0.5-0.3,0.8c-0.2,0.6-0.5,1.3-0.8,2c-0.3,0.7-0.7,1.4-1.2,2.1c-0.4,0.6-1,1.2-1.5,1.7
		c-0.6,0.5-1.2,0.8-1.9,1c-0.6,0.1-1.1,0-1.6-0.2s-0.9-0.7-1.3-1.1c-0.4-0.5-0.7-1-1-1.5c-0.3-0.6-0.5-1-0.7-1.5
		C239.7,62.6,239.4,63.1,239,63.7z M236.5,58.4c-0.6,0.6-1.1,1.4-1.5,2.2c-0.4,0.8-0.7,1.7-0.8,2.6c-0.2,0.9-0.2,1.7,0,2.4
		c0,0.1,0.1,0.2,0.1,0.4c0.1,0.2,0.2,0.2,0.4,0.2c0.4-0.1,0.8-0.4,1.3-0.9c0.5-0.5,1-1.1,1.4-1.8c0.5-0.7,0.9-1.3,1.2-2
		c0.4-0.6,0.6-1.1,0.7-1.4c-0.2-0.5-0.3-1-0.4-1.4s-0.2-1-0.3-1.4C237.8,57.4,237.2,57.8,236.5,58.4z M241.2,57
		c0.2-1,0.5-2.2,0.7-3.6c0.2-1.4,0.4-2.8,0.6-4.2c0.2-1.4,0.2-2.8,0.2-4.2c0-1.4-0.1-2.6-0.3-3.6c0,0,0-0.1,0-0.2
		c0-0.1-0.1-0.2-0.1-0.3c0-0.1-0.1-0.2-0.2-0.3c-0.1-0.1-0.1-0.1-0.2-0.1c-0.1,0-0.2,0.1-0.3,0.2c-0.1,0.1-0.1,0.2-0.2,0.3
		c-0.2,0.4-0.4,1-0.5,1.8c-0.1,0.8-0.2,1.7-0.3,2.7c-0.1,1-0.1,2-0.1,3.1c0,1.1,0,2.2,0.1,3.2c0,1,0.1,2,0.2,2.8
		c0.1,0.8,0.2,1.5,0.3,2L241.2,57z"/>
</g>
<g>
	<path fill="#FFFFFF" d="M42.3,8.7c0,0.2,0.1,0.4,0.1,0.6c0.1,0.6,0.3,1.4,0.4,2.4c0.2,1,0.3,2,0.3,3.1c0.1,1.1,0.1,2.2,0,3.3
		c0,1.1-0.2,2.2-0.5,3.1c-0.3,0.9-0.6,1.8-1.1,2.4c-0.5,0.7-1.2,1.1-2.1,1.3c-0.5,0.1-0.9,0.1-1.3,0c-0.4-0.1-0.7-0.3-1.1-0.6
		c-0.1-0.1-0.3-0.2-0.4-0.3c-0.1-0.1-0.2-0.3-0.3-0.5c0.1-0.2,0.1-0.3,0.3-0.3c0.1,0,0.3,0,0.4,0.1c0.2,0.1,0.3,0.2,0.5,0.3
		c0.2,0.1,0.4,0.2,0.6,0.3c0.2,0.1,0.5,0.1,0.8,0c0.6-0.1,1-0.5,1.3-1.1c0.3-0.6,0.5-1.3,0.6-2.2c0.1-0.9,0.2-1.8,0.1-2.8
		c0-1-0.1-2-0.2-3c-0.1-1-0.2-1.8-0.4-2.6c-0.1-0.8-0.2-1.4-0.3-1.8c-0.1-0.3-0.1-0.6-0.2-0.9c-0.1-0.3-0.2-0.6-0.3-0.9
		c-0.7,0.3-1.4,0.5-2.1,0.7c-0.7,0.2-1.4,0.4-2.1,0.7c-0.1,0-0.3,0.1-0.6,0.2c-0.3,0.1-0.5,0.2-0.8,0.4c-0.3,0.2-0.5,0.3-0.7,0.5
		c-0.2,0.2-0.3,0.4-0.2,0.6c0.1,0.4,0.2,0.7,0.4,0.9c0.2,0.3,0.4,0.5,0.6,0.7c0.2,0.2,0.4,0.4,0.6,0.5c0.2,0.1,0.3,0.2,0.3,0.3
		c0,0.1,0,0.2-0.1,0.3l-0.1,0c-0.2,0-0.3,0-0.5,0c-0.3-0.1-0.5-0.2-0.8-0.4s-0.5-0.4-0.7-0.6c-0.2-0.2-0.4-0.5-0.6-0.8
		c-0.2-0.3-0.3-0.5-0.3-0.8c-0.1-0.5,0-0.9,0.2-1.2c0.2-0.3,0.5-0.6,0.9-0.9c0.4-0.3,0.8-0.5,1.2-0.7C35,9.1,35.4,9,35.7,8.8
		c0.6-0.2,1.3-0.5,2-0.7c0.7-0.2,1.3-0.4,2-0.6c0.7-0.2,1.3-0.4,2-0.7c0.7-0.3,1.3-0.5,1.9-0.8c0.1-0.1,0.2-0.1,0.4-0.2
		s0.3-0.2,0.4-0.3c0.1-0.1,0.3-0.2,0.4-0.2C44.8,5.2,45,5.2,45,5.2c0.2,0,0.3,0,0.3,0.2c0.1,0.2,0.1,0.3,0.1,0.4c0,0.2,0,0.3,0,0.4
		c0,0.1-0.1,0.2-0.3,0.4c-0.1,0.1-0.4,0.3-0.6,0.4s-0.6,0.3-0.9,0.4c-0.3,0.1-0.6,0.3-0.9,0.4c-0.3,0.1-0.5,0.2-0.7,0.4
		C42.2,8.3,42.3,8.5,42.3,8.7z"/>
	<path fill="#FFFFFF" d="M51.7,13.1c-0.2,0.4-0.4,0.8-0.7,1.4c-0.2,0.6-0.5,1.2-0.7,1.9c-0.2,0.7-0.4,1.3-0.6,1.9
		c-0.2,0.6-0.3,1.2-0.5,1.7c-0.1,0.5-0.2,0.8-0.3,1.1c0,0.1-0.1,0.3-0.1,0.5c-0.1,0.2-0.1,0.3-0.2,0.5c-0.1,0.2-0.2,0.3-0.3,0.4
		c-0.1,0.1-0.3,0.2-0.4,0.2c-0.2,0-0.3,0-0.4-0.1s-0.2-0.2-0.3-0.3c-0.1-0.1-0.2-0.3-0.2-0.4c0-0.2-0.1-0.3-0.1-0.4
		c-0.1-0.4-0.1-0.8-0.2-1.2c0-0.4-0.1-0.8-0.1-1.2c-0.1-0.7-0.1-1.5-0.2-2.2s-0.1-1.5-0.2-2.2c-0.1-0.8-0.2-1.8-0.3-2.8
		c-0.1-1-0.2-2.1-0.2-3.2s0-2.1,0-3.2c0-1,0.2-1.9,0.4-2.7c0.1-0.2,0.1-0.4,0.2-0.6c0.1-0.2,0.2-0.4,0.3-0.6s0.3-0.4,0.4-0.5
		c0.2-0.1,0.4-0.2,0.6-0.3c0.3-0.1,0.5,0,0.7,0.1c0.2,0.1,0.4,0.3,0.5,0.5c0.1,0.2,0.2,0.4,0.3,0.7c0.1,0.2,0.1,0.5,0.2,0.6
		c0.4,1.7,0.5,3.4,0.3,5.1c-0.2,1.7-0.5,3.4-0.9,5c-0.1,0.4-0.2,0.8-0.3,1.2c-0.1,0.4-0.2,0.8-0.3,1.2c0,0.1,0,0.3,0,0.7
		c0,0.4,0,0.7,0,1.2c0,0.4,0,0.8,0.1,1.2c0,0.4,0,0.6,0,0.8c0.1-0.3,0.2-0.7,0.3-1.2c0.1-0.5,0.3-1,0.5-1.6c0.2-0.6,0.4-1.1,0.7-1.7
		c0.2-0.6,0.5-1.1,0.8-1.6c0.3-0.5,0.6-0.9,0.9-1.2c0.3-0.3,0.7-0.5,1-0.6c0.3-0.1,0.5,0,0.7,0.1c0.2,0.1,0.4,0.2,0.5,0.4
		c0.1,0.2,0.3,0.4,0.3,0.6c0.1,0.2,0.2,0.4,0.2,0.7c0.2,0.9,0.3,1.9,0.4,2.9c0.1,1,0.2,1.9,0.4,2.9c0,0.1,0.1,0.2,0.1,0.3
		c0,0.1,0.1,0.2,0.1,0.3s0.1,0.2,0.2,0.2c0.1,0,0.2,0.1,0.4,0c0.3-0.1,0.6-0.3,0.9-0.6c0.3-0.3,0.6-0.7,0.8-1.1
		c0.3-0.4,0.5-0.8,0.7-1.3c0.2-0.4,0.4-0.8,0.5-1.1c0-0.1,0.1-0.2,0.2-0.4c0.1-0.2,0.2-0.3,0.3-0.3c0.1,0,0.2,0,0.3,0.1
		s0.1,0.2,0.1,0.3c0,0.1,0,0.1,0,0.2c0,0.1,0,0.1-0.1,0.2c-0.1,0.5-0.3,1-0.6,1.6c-0.3,0.6-0.6,1.2-1,1.7c-0.4,0.5-0.8,1-1.3,1.4
		c-0.5,0.4-1,0.7-1.5,0.8c-0.3,0.1-0.6,0-0.8-0.2c-0.2-0.2-0.4-0.5-0.5-0.8c-0.1-0.3-0.3-0.6-0.3-1c-0.1-0.4-0.1-0.6-0.2-0.8
		c-0.2-0.8-0.3-1.6-0.4-2.5c-0.1-0.8-0.2-1.7-0.3-2.5l0-0.2c0-0.1,0-0.2-0.1-0.3c0-0.1-0.1-0.2-0.2-0.2C52.1,12.5,52,12.7,51.7,13.1
		z M47.5,2.8c-0.1,0.5-0.2,1.1-0.3,1.9c-0.1,0.8-0.1,1.6-0.1,2.5c0,0.9,0,1.7,0.1,2.5c0,0.8,0.1,1.5,0.1,2.2
		c0.1,0.6,0.1,1.1,0.1,1.3c0.2-0.7,0.4-1.5,0.6-2.4s0.3-1.8,0.4-2.7c0.1-0.9,0.2-1.8,0.2-2.7c0-0.9-0.1-1.7-0.2-2.4
		c0,0,0-0.1-0.1-0.2s-0.1-0.2-0.1-0.4c0-0.1-0.1-0.2-0.1-0.3C48.2,2,48.2,2,48.1,2C47.8,2,47.7,2.3,47.5,2.8z"/>
	<path fill="#FFFFFF" d="M59.6,19.2c-0.4-0.1-0.7-0.3-0.9-0.5c-0.3-0.2-0.5-0.5-0.6-0.9s-0.3-0.7-0.4-1.1c-0.1-0.5-0.1-1.1-0.1-1.9
		s0.2-1.5,0.4-2.3c0.2-0.7,0.5-1.4,0.9-2c0.4-0.6,0.9-0.9,1.5-1.1c0.4-0.1,0.7,0,1,0.2c0.3,0.2,0.5,0.5,0.5,0.9
		c0.1,0.4,0.1,0.8-0.1,1.3c-0.1,0.5-0.3,1-0.6,1.5c-0.3,0.5-0.6,1-0.9,1.4c-0.3,0.4-0.7,0.7-1,0.9c0,0.4,0,0.7,0.1,1
		c0.1,0.5,0.3,0.9,0.6,1.1c0.3,0.2,0.7,0.3,1.2,0.2c0.5-0.1,0.9-0.3,1.3-0.6c0.4-0.3,0.7-0.6,1-1c0.3-0.4,0.6-0.8,0.8-1.2
		c0.2-0.4,0.4-0.9,0.5-1.3c0-0.1,0.1-0.3,0.2-0.4c0.1-0.2,0.2-0.3,0.4-0.3c0.1,0,0.2,0,0.2,0s0.1,0.1,0.1,0.2c0,0.2,0,0.3,0,0.4
		c0,0.1,0,0.2-0.1,0.3c-0.2,0.6-0.4,1.1-0.7,1.7c-0.3,0.6-0.7,1.1-1.1,1.5c-0.4,0.5-0.9,0.8-1.4,1.2c-0.5,0.3-1.1,0.6-1.7,0.7
		C60.4,19.3,60,19.3,59.6,19.2z M59.9,11.2c-0.2,0.4-0.3,0.8-0.4,1.3c-0.1,0.5-0.2,0.9-0.2,1.4c0,0.5-0.1,0.8,0,1
		c0.2-0.2,0.4-0.5,0.7-0.8c0.2-0.3,0.4-0.6,0.6-1c0.2-0.4,0.3-0.7,0.4-1.1c0.1-0.4,0.1-0.7,0-1c0-0.1-0.1-0.2-0.2-0.3
		c-0.1-0.1-0.2-0.1-0.3-0.1C60.3,10.6,60.1,10.8,59.9,11.2z"/>
</g>
</svg>
